<svg xmlns="http://www.w3.org/2000/svg" width="720" height="536" font-family="monospace">
<rect width="720" height="536" fill="#141310"/>
<text x="16" y="26" fill="#e6e1d8" font-size="16">bundle size</text>
<text x="16" y="46" fill="#8a8578" font-size="11">full install footprint: the binary, or the package dir for script CLIs · lower is better</text>
<text x="16" y="79" fill="#8a8578" font-size="12">jcode</text>
<rect x="170" y="67" width="3" height="16" fill="#5b7fa6"/>
<text x="181" y="80" fill="#e6e1d8" font-size="12">0.0 MB</text>
<text x="16" y="105" fill="#e6e1d8" font-size="12">fox-agent</text>
<rect x="170" y="93" width="61" height="16" fill="#e0803c"/>
<text x="239" y="106" fill="#e6e1d8" font-size="12">89.1 MB</text>
<text x="16" y="131" fill="#8a8578" font-size="12">gemini cli</text>
<rect x="170" y="119" width="70" height="16" fill="#5b7fa6"/>
<text x="248" y="132" fill="#e6e1d8" font-size="12">102.0 MB</text>
<text x="16" y="157" fill="#8a8578" font-size="12">crush</text>
<rect x="170" y="145" width="85" height="16" fill="#5b7fa6"/>
<text x="263" y="158" fill="#e6e1d8" font-size="12">123.7 MB</text>
<text x="16" y="183" fill="#8a8578" font-size="12">qwen code</text>
<rect x="170" y="171" width="105" height="16" fill="#5b7fa6"/>
<text x="283" y="184" fill="#e6e1d8" font-size="12">154.1 MB</text>
<text x="16" y="209" fill="#8a8578" font-size="12">copilot cli</text>
<rect x="170" y="197" width="114" height="16" fill="#5b7fa6"/>
<text x="292" y="210" fill="#e6e1d8" font-size="12">166.8 MB</text>
<text x="16" y="235" fill="#8a8578" font-size="12">opencode v1</text>
<rect x="170" y="223" width="127" height="16" fill="#5b7fa6"/>
<text x="305" y="236" fill="#e6e1d8" font-size="12">185.0 MB</text>
<text x="16" y="261" fill="#8a8578" font-size="12">opencode v2</text>
<rect x="170" y="249" width="142" height="16" fill="#5b7fa6"/>
<text x="320" y="262" fill="#e6e1d8" font-size="12">207.4 MB</text>
<text x="16" y="287" fill="#8a8578" font-size="12">claude code</text>
<rect x="170" y="275" width="160" height="16" fill="#5b7fa6"/>
<text x="338" y="288" fill="#e6e1d8" font-size="12">234.1 MB</text>
<text x="16" y="313" fill="#8a8578" font-size="12">goose</text>
<rect x="170" y="301" width="214" height="16" fill="#5b7fa6"/>
<text x="392" y="314" fill="#e6e1d8" font-size="12">312.5 MB</text>
<text x="16" y="339" fill="#8a8578" font-size="12">codex</text>
<rect x="170" y="327" width="254" height="16" fill="#5b7fa6"/>
<text x="432" y="340" fill="#e6e1d8" font-size="12">370.5 MB</text>
<text x="16" y="365" fill="#8a8578" font-size="12">pi</text>
<rect x="170" y="353" width="276" height="16" fill="#5b7fa6"/>
<text x="454" y="366" fill="#e6e1d8" font-size="12">402.9 MB</text>
<text x="16" y="391" fill="#8a8578" font-size="12">kilo code</text>
<rect x="170" y="379" width="370" height="16" fill="#5b7fa6"/>
<text x="548" y="392" fill="#e6e1d8" font-size="12">539.9 MB</text>
<text x="16" y="417" fill="#8a8578" font-size="12">aider</text>
<rect x="170" y="405" width="440" height="16" fill="#5b7fa6"/>
<text x="618" y="418" fill="#e6e1d8" font-size="12">642.8 MB</text>
<text x="16" y="443" fill="#8a8578" font-size="12">amp</text>
<rect x="170" y="431" width="440" height="16" fill="#3a382f"/>
<text x="176" y="444" fill="#8a8578" font-size="11">n/a — not installed</text>
<text x="16" y="469" fill="#8a8578" font-size="12">cursor-agent</text>
<rect x="170" y="457" width="440" height="16" fill="#3a382f"/>
<text x="176" y="470" fill="#8a8578" font-size="11">n/a — not installed</text>
<text x="16" y="495" fill="#8a8578" font-size="12">codebuff</text>
<rect x="170" y="483" width="440" height="16" fill="#3a382f"/>
<text x="176" y="496" fill="#8a8578" font-size="11">n/a — not installed</text>
</svg>
