<svg xmlns="http://www.w3.org/2000/svg" width="720" height="536" font-family="monospace">
<rect width="720" height="536" fill="#141310"/>
<text x="16" y="26" fill="#e6e1d8" font-size="16">time to first char — actual TUI launch</text>
<text x="16" y="46" fill="#8a8578" font-size="11">PTY launch with no args to first output byte, best of 5 · lower is better</text>
<text x="16" y="79" fill="#8a8578" font-size="12">goose</text>
<rect x="170" y="67" width="3" height="16" fill="#5b7fa6"/>
<text x="181" y="80" fill="#e6e1d8" font-size="12">6.8 ms</text>
<text x="16" y="105" fill="#8a8578" font-size="12">jcode</text>
<rect x="170" y="93" width="3" height="16" fill="#5b7fa6"/>
<text x="181" y="106" fill="#e6e1d8" font-size="12">9.0 ms</text>
<text x="16" y="131" fill="#e6e1d8" font-size="12">fox-agent</text>
<rect x="170" y="119" width="5" height="16" fill="#e0803c"/>
<text x="183" y="132" fill="#e6e1d8" font-size="12">12.5 ms</text>
<text x="16" y="157" fill="#8a8578" font-size="12">codex</text>
<rect x="170" y="145" width="12" height="16" fill="#5b7fa6"/>
<text x="190" y="158" fill="#e6e1d8" font-size="12">32.0 ms</text>
<text x="16" y="183" fill="#8a8578" font-size="12">opencode v2</text>
<rect x="170" y="171" width="34" height="16" fill="#5b7fa6"/>
<text x="212" y="184" fill="#e6e1d8" font-size="12">92.6 ms</text>
<text x="16" y="209" fill="#8a8578" font-size="12">claude code</text>
<rect x="170" y="197" width="47" height="16" fill="#5b7fa6"/>
<text x="225" y="210" fill="#e6e1d8" font-size="12">128 ms</text>
<text x="16" y="235" fill="#8a8578" font-size="12">pi</text>
<rect x="170" y="223" width="68" height="16" fill="#5b7fa6"/>
<text x="246" y="236" fill="#e6e1d8" font-size="12">184 ms</text>
<text x="16" y="261" fill="#8a8578" font-size="12">copilot cli</text>
<rect x="170" y="249" width="170" height="16" fill="#5b7fa6"/>
<text x="348" y="262" fill="#e6e1d8" font-size="12">456 ms</text>
<text x="16" y="287" fill="#8a8578" font-size="12">aider</text>
<rect x="170" y="275" width="177" height="16" fill="#5b7fa6"/>
<text x="355" y="288" fill="#e6e1d8" font-size="12">476 ms</text>
<text x="16" y="313" fill="#8a8578" font-size="12">crush</text>
<rect x="170" y="301" width="181" height="16" fill="#5b7fa6"/>
<text x="359" y="314" fill="#e6e1d8" font-size="12">488 ms</text>
<text x="16" y="339" fill="#8a8578" font-size="12">opencode v1</text>
<rect x="170" y="327" width="239" height="16" fill="#5b7fa6"/>
<text x="417" y="340" fill="#e6e1d8" font-size="12">644 ms</text>
<text x="16" y="365" fill="#8a8578" font-size="12">qwen code</text>
<rect x="170" y="353" width="275" height="16" fill="#5b7fa6"/>
<text x="453" y="366" fill="#e6e1d8" font-size="12">739 ms</text>
<text x="16" y="391" fill="#8a8578" font-size="12">gemini cli</text>
<rect x="170" y="379" width="368" height="16" fill="#5b7fa6"/>
<text x="546" y="392" fill="#e6e1d8" font-size="12">991 ms</text>
<text x="16" y="417" fill="#8a8578" font-size="12">kilo code</text>
<rect x="170" y="405" width="440" height="16" fill="#5b7fa6"/>
<text x="618" y="418" fill="#e6e1d8" font-size="12">1,184 ms</text>
<text x="16" y="443" fill="#8a8578" font-size="12">amp</text>
<rect x="170" y="431" width="440" height="16" fill="#3a382f"/>
<text x="176" y="444" fill="#8a8578" font-size="11">n/a — not installed</text>
<text x="16" y="469" fill="#8a8578" font-size="12">cursor-agent</text>
<rect x="170" y="457" width="440" height="16" fill="#3a382f"/>
<text x="176" y="470" fill="#8a8578" font-size="11">n/a — not installed</text>
<text x="16" y="495" fill="#8a8578" font-size="12">codebuff</text>
<rect x="170" y="483" width="440" height="16" fill="#3a382f"/>
<text x="176" y="496" fill="#8a8578" font-size="11">n/a — not installed</text>
</svg>
