<svg xmlns="http://www.w3.org/2000/svg" width="720" height="536" font-family="monospace">
<rect width="720" height="536" fill="#141310"/>
<text x="16" y="26" fill="#e6e1d8" font-size="16">time to first char — actual TUI launch</text>
<text x="16" y="46" fill="#8a8578" font-size="11">PTY launch with no args to first output byte, best of 5 · lower is better</text>
<text x="16" y="79" fill="#8a8578" font-size="12">goose</text>
<rect x="170" y="67" width="3" height="16" fill="#5b7fa6"/>
<text x="181" y="80" fill="#e6e1d8" font-size="12">7.8 ms</text>
<text x="16" y="105" fill="#8a8578" font-size="12">jcode</text>
<rect x="170" y="93" width="3" height="16" fill="#5b7fa6"/>
<text x="181" y="106" fill="#e6e1d8" font-size="12">11.9 ms</text>
<text x="16" y="131" fill="#e6e1d8" font-size="12">fox-agent</text>
<rect x="170" y="119" width="3" height="16" fill="#e0803c"/>
<text x="181" y="132" fill="#e6e1d8" font-size="12">14.8 ms</text>
<text x="16" y="157" fill="#8a8578" font-size="12">codex</text>
<rect x="170" y="145" width="11" height="16" fill="#5b7fa6"/>
<text x="189" y="158" fill="#e6e1d8" font-size="12">44.9 ms</text>
<text x="16" y="183" fill="#8a8578" font-size="12">opencode v2</text>
<rect x="170" y="171" width="34" height="16" fill="#5b7fa6"/>
<text x="212" y="184" fill="#e6e1d8" font-size="12">146 ms</text>
<text x="16" y="209" fill="#8a8578" font-size="12">claude code</text>
<rect x="170" y="197" width="49" height="16" fill="#5b7fa6"/>
<text x="227" y="210" fill="#e6e1d8" font-size="12">207 ms</text>
<text x="16" y="235" fill="#8a8578" font-size="12">pi</text>
<rect x="170" y="223" width="75" height="16" fill="#5b7fa6"/>
<text x="253" y="236" fill="#e6e1d8" font-size="12">315 ms</text>
<text x="16" y="261" fill="#8a8578" font-size="12">crush</text>
<rect x="170" y="249" width="125" height="16" fill="#5b7fa6"/>
<text x="303" y="262" fill="#e6e1d8" font-size="12">529 ms</text>
<text x="16" y="287" fill="#8a8578" font-size="12">aider</text>
<rect x="170" y="275" width="177" height="16" fill="#5b7fa6"/>
<text x="355" y="288" fill="#e6e1d8" font-size="12">750 ms</text>
<text x="16" y="313" fill="#8a8578" font-size="12">qwen code</text>
<rect x="170" y="301" width="192" height="16" fill="#5b7fa6"/>
<text x="370" y="314" fill="#e6e1d8" font-size="12">814 ms</text>
<text x="16" y="339" fill="#8a8578" font-size="12">copilot cli</text>
<rect x="170" y="327" width="202" height="16" fill="#5b7fa6"/>
<text x="380" y="340" fill="#e6e1d8" font-size="12">853 ms</text>
<text x="16" y="365" fill="#8a8578" font-size="12">opencode v1</text>
<rect x="170" y="353" width="242" height="16" fill="#5b7fa6"/>
<text x="420" y="366" fill="#e6e1d8" font-size="12">1,025 ms</text>
<text x="16" y="391" fill="#8a8578" font-size="12">gemini cli</text>
<rect x="170" y="379" width="384" height="16" fill="#5b7fa6"/>
<text x="562" y="392" fill="#e6e1d8" font-size="12">1,624 ms</text>
<text x="16" y="417" fill="#8a8578" font-size="12">kilo code</text>
<rect x="170" y="405" width="440" height="16" fill="#5b7fa6"/>
<text x="618" y="418" fill="#e6e1d8" font-size="12">1,861 ms</text>
<text x="16" y="443" fill="#8a8578" font-size="12">amp</text>
<rect x="170" y="431" width="440" height="16" fill="#3a382f"/>
<text x="176" y="444" fill="#8a8578" font-size="11">n/a — not installed</text>
<text x="16" y="469" fill="#8a8578" font-size="12">cursor-agent</text>
<rect x="170" y="457" width="440" height="16" fill="#3a382f"/>
<text x="176" y="470" fill="#8a8578" font-size="11">n/a — not installed</text>
<text x="16" y="495" fill="#8a8578" font-size="12">codebuff</text>
<rect x="170" y="483" width="440" height="16" fill="#3a382f"/>
<text x="176" y="496" fill="#8a8578" font-size="11">n/a — not installed</text>
</svg>
